<svg width="24" height="24" viewBox="0 0 24 24" fill="none" xmlns="http://www.w3.org/2000/svg">
<g id="Frame">
<path id="Vector" d="M4 20L7.45 11.1C7.61696 10.7687 7.87281 10.4903 8.18893 10.296C8.50504 10.1018 8.86897 9.99927 9.24 10H20M4 20H18.45C18.894 20.0008 19.3256 19.8538 19.6769 19.5822C20.0281 19.3106 20.279 18.9299 20.39 18.5L21.94 12.5C22.0164 12.2042 22.024 11.8948 21.9622 11.5956C21.9004 11.2963 21.7709 11.0152 21.5836 10.7739C21.3963 10.5325 21.1561 10.3372 20.8816 10.2031C20.6071 10.0689 20.3055 9.99946 20 10M4 20C3.46957 20 2.96086 19.7893 2.58579 19.4142C2.21071 19.0391 2 18.5304 2 18V5C2 3.9 2.9 3 4 3H7.93C8.25941 3.0017 8.58331 3.08475 8.8729 3.24176C9.1625 3.39877 9.40882 3.62488 9.59 3.9L10.41 5.1C10.5912 5.37512 10.8375 5.60123 11.1271 5.75824C11.4167 5.91525 11.7406 5.9983 12.07 6H18C18.5304 6 19.0391 6.21071 19.4142 6.58579C19.7893 6.96086 20 7.46957 20 8V10" stroke="#3483FC" stroke-width="2" stroke-linecap="round" stroke-linejoin="round"/>
</g>
</svg>
